<svg xmlns="http://www.w3.org/2000/svg" version="1.1" xmlns:xlink="http://www.w3.org/1999/xlink" xmlns:svgjs="http://svgjs.dev/svgjs" viewBox="0 0 1920 1080"><rect width="1920" height="1080" fill="#7171ff"></rect><g transform="matrix(0.8131727983645296,0.8131727983645296,-0.8131727983645296,0.8131727983645296,604.8190442139539,-620.354080705285)"><path d="M0,-1080C20.11877267615135,-980.4839406600439,119.74616000850567,-659.2450563747421,120.71263605690811,-482.9036439602635C121.67911210531055,-306.5622315457848,15.015686334852868,-210.0655082603585,5.798856290414619,-21.95152551312819C-3.4179737540236292,166.16245723410213,87.23161998200274,465.7436152519134,65.41165579027862,645.7802525231183C43.59169159855449,825.8168897943232,-93.01885060460154,875.2493422430204,-125.1209288599301,1058.2682981141008C-157.22300711525867,1241.2872539851812,-148.05430188501447,1560.2720374352843,-127.20081374169277,1743.893987749601C-106.34732559837109,1927.5159380639175,-21.200135623615463,2090.6489979582666,0,2160L 1920 2160 L 1920 -1080 Z" fill="url(&quot;#SvgjsLinearGradient1544&quot;)"></path><path d="M160,-1080C157.2808523933058,-976.7117658683962,157.7069008138568,-619.1780650281394,143.68511435983484,-460.2705952103771C129.66332790581288,-301.3631253926149,85.15517199432036,-272.9125599341255,75.86928127586819,-126.55518109342677C66.58339055741602,19.802197747271947,78.67870490844346,199.44072647151947,87.96977004912188,417.8736778338152C97.26083518980029,636.3066291961109,125.61503695276893,965.808153738631,131.61567211993867,1184.0425270803473C137.61630728710838,1402.2769004220636,119.2428597387967,1564.6203390641713,123.97358105214025,1727.2799178841135C128.7043023654838,1889.9394967040557,153.99559684202336,2087.879986314019,160,2160L 1920 2160 L 1920 -1080 Z" fill="url(&quot;#SvgjsLinearGradient1545&quot;)"></path><path d="M320,-1080C318.90416877519164,-972.6347481447982,326.0161653985096,-663.8642108784637,313.42501265114976,-435.80848886878914C300.8338599037899,-207.75276685911453,256.6037204397929,70.50354751076787,244.45308351584092,288.33433205804766C232.30244659188895,506.16511660532746,207.5128836478071,677.8407107612484,240.52119110743791,871.1762184148895C273.52949856706874,1064.5117260685306,429.25646012486544,1233.5434143823763,442.5029282736258,1448.3473779798946C455.74939642238616,1663.151341577413,340.417154712271,2041.3912296633157,320,2160L 1920 2160 L 1920 -1080 Z" fill="url(&quot;#SvgjsLinearGradient1546&quot;)"></path><path d="M480,-1080C482.4860722238692,-1021.3005173602825,514.179863649452,-879.0888073188243,494.9164333432154,-727.803104161695C475.6530030369787,-576.5174010045658,371.44840620596136,-295.7077801531574,364.4194181625798,-172.28578105722494C357.39043011919824,-48.863781961292474,445.8282736924204,-105.25154674783454,452.7425050829259,12.728890413899705C459.6567364734314,130.70932757563395,397.7661743874472,373.36476775928134,405.9048065056128,535.5968419131805C414.04343862377834,697.8289160670796,476.6957387642286,863.8730443175978,501.5742977919191,986.1213353372943C526.4528568196096,1108.369626356991,544.5225487371472,1159.1599469815555,555.1761606717555,1269.0865880313602C565.8297726063638,1379.0132290811648,578.0253295115278,1497.1956129746823,565.4959693995686,1645.6811816361223C552.9666092876093,1794.1667502975624,494.24932823326145,2074.2801969393536,480,2160L 1920 2160 L 1920 -1080 Z" fill="url(&quot;#SvgjsLinearGradient1547&quot;)"></path><path d="M640,-1080C656.2131146255203,-926.685125309569,717.1122802266135,-418.0826110690335,737.2786877531221,-160.11075185741367C757.4450952796307,97.86110735420613,795.9284978155905,230.02609963468842,760.9984451590517,467.8311552697188C726.0683925025129,705.6362109047492,547.8647793403978,984.6914411643886,527.6983718138893,1266.7195819527687C507.5319642873806,1548.747722741149,621.2830619689815,2011.1199303254614,640,2160L 1920 2160 L 1920 -1080 Z" fill="url(&quot;#SvgjsLinearGradient1548&quot;)"></path><path d="M800,-1080C785.4272046431887,-1005.770875059759,717.8636057893322,-802.1904230341773,712.5632278591322,-634.625250358554C707.2628499289323,-467.0600776829307,748.3346604552692,-289.56149034932815,768.1977324188001,-74.60896394625993C788.0608043823311,140.34356245680829,819.8525450172493,450.55020656789486,831.7416596403178,655.0899080598555C843.6307742633863,859.6296095518161,856.5484184619825,1001.0812724719963,839.532420157211,1152.6292450055034C822.5164218524396,1304.1772175390106,736.2344065045581,1396.4826174284826,729.6456698116896,1564.3777432608988C723.056933118821,1732.272869093315,788.2742783019482,2060.7296238768163,800,2160L 1920 2160 L 1920 -1080 Z" fill="url(&quot;#SvgjsLinearGradient1549&quot;)"></path><path d="M960,-1080C958.6527044924644,-999.8356087022373,953.1257707916232,-781.4942139553815,951.9162269547865,-599.0136522134236C950.7066831179498,-416.5330904714657,969.6877010483713,-187.72611878504478,952.7427369789798,14.883370451747425C935.7977729095883,217.49285968853962,863.670401521282,419.3946088843244,850.2464425384373,616.6432832073294C836.8224835555927,813.8919575303345,850.5501677603709,1041.8704776165544,872.1989830819122,1198.3754163897775C893.8477984034535,1354.8803551630006,965.5058316480039,1395.402151911631,980.1393344676852,1555.6729158466683C994.7728372873665,1715.9436797817054,963.3565557446142,2059.278819307778,960,2160L 1920 2160 L 1920 -1080 Z" fill="url(&quot;#SvgjsLinearGradient1550&quot;)"></path><path d="M1120,-1080C1135.3558615312868,-1013.6970836238912,1204.883119898206,-832.5251804446473,1212.1351691877214,-682.1825017433471C1219.387218477237,-531.8398230420469,1167.6087750572642,-330.01835232288886,1163.5122957370936,-177.9439277921987C1159.415816416923,-25.869503261508555,1190.3092589691214,58.113209115585505,1187.5562932666985,230.26404544079378C1184.8033275642756,402.41488176600205,1177.5408100226166,674.6196650883609,1146.9945015225562,854.961090159051C1116.4481930224958,1035.302515229741,997.73677086036,1167.850272540513,1004.278442266336,1312.3125958649343C1010.820113672312,1456.7749191893556,1166.9576036694684,1580.4537960830683,1186.2445299584124,1721.7350301055792C1205.5314562473563,1863.0162641280901,1131.0407549930687,2086.9558383509298,1120,2160L 1920 2160 L 1920 -1080 Z" fill="url(&quot;#SvgjsLinearGradient1551&quot;)"></path><path d="M1280,-1080C1265.9171600339214,-1003.3504305967775,1216.041622605635,-789.1762253162523,1195.5029602035286,-620.1025835806649C1174.9642978014222,-451.0289418450776,1161.517155887727,-242.94369012940473,1156.7680255873622,-65.55814958647605C1152.0188952869973,111.82739095645263,1164.3747440429686,259.99417345181877,1167.0081784013391,444.21065967690726C1169.6416127597097,628.4271459019958,1168.419552745917,836.8003918921385,1172.5686317375855,1039.740767764055C1176.7177107292541,1242.6811436359712,1173.9974243076153,1475.1430428690815,1191.9026523513512,1661.8529149084056C1209.807880395087,1848.5627869477298,1265.3171087252251,2076.9754858180677,1280,2160L 1920 2160 L 1920 -1080 Z" fill="url(&quot;#SvgjsLinearGradient1552&quot;)"></path><path d="M1440,-1080C1422.526534365019,-1029.7094018705802,1338.3660407000093,-899.0764746016501,1335.159206190113,-778.2564112234818C1331.9523716802169,-657.4363478453134,1407.1918062209413,-497.7321056587665,1420.7589929406226,-355.07961973099C1434.326179660304,-212.42713380321342,1426.9697754799122,-83.7103458701364,1416.5623265082006,77.65850434317761C1406.154877536489,239.02735455649162,1350.6314600543874,459.3662229779568,1358.3142991103527,613.133481548894C1365.997138166318,766.9007401198312,1461.6845603421023,881.0218010690901,1462.6593608439935,1000.2620557688008C1463.6341613458846,1119.5023104685115,1357.9007421202887,1209.1795601419726,1364.1631021216997,1328.575009747158C1370.4254621231107,1447.9704593523434,1487.5940378727437,1578.0639216911065,1500.2335208524603,1716.6347533999135C1512.873003832177,1855.2055851087205,1450.0389201420767,2086.105792233319,1440,2160L 1920 2160 L 1920 -1080 Z" fill="url(&quot;#SvgjsLinearGradient1553&quot;)"></path><path d="M1600,-1080C1613.302496997722,-1000.624628876429,1673.8203994340201,-758.2217518701011,1679.8149819863322,-603.7477732585744C1685.8095645386443,-449.2737946470477,1661.7254141027406,-265.171832742354,1635.9674953138729,-153.15612833083966C1610.209576525005,-41.1404239193253,1527.7185268309686,-27.76746118784567,1525.267469253126,68.34645321051178C1522.8164116752832,164.46036760886923,1626.7241246555168,277.5732937304749,1621.2611498468173,423.527358059305C1615.7981750381177,569.4814223881351,1494.7013485268383,778.0533680754311,1492.4896204009294,944.0708391834925C1490.2778922750206,1110.0883102915539,1605.034538342746,1271.1367847060355,1607.990781091364,1419.6321847076736C1610.947023839982,1568.1275847093116,1511.558873741198,1711.6486033112656,1510.2270768926373,1835.04323919332C1508.8952800440766,1958.4378750753744,1585.0378461487728,2105.840539865553,1600,2160L 1920 2160 L 1920 -1080 Z" fill="url(&quot;#SvgjsLinearGradient1554&quot;)"></path><path d="M1760,-1080C1774.3293525620707,-981.3668398879975,1839.2438035261143,-719.0242855204036,1845.9761153724237,-488.20103932798486C1852.708427218733,-257.3777931355661,1822.5141427591639,88.40835044582641,1800.3938710778564,304.9394771545124C1778.273599396549,521.4706038631984,1739.8705838340313,606.5277674850842,1713.2544852845783,810.9857209241311C1686.6383867351253,1015.443674363178,1632.906360661902,1306.8514846094827,1640.6972797811388,1531.687197788794C1648.4881989003757,1756.5229109681054,1740.1162132968566,2055.281199631466,1760,2160L 1920 2160 L 1920 -1080 Z" fill="url(&quot;#SvgjsLinearGradient1555&quot;)"></path></g><defs><linearGradient x1="0.1" y1="0" x2="0" y2="1" id="SvgjsLinearGradient1544"><stop stop-color="#7171ff" offset="0"></stop><stop stop-color="#7189ff" offset="0"></stop></linearGradient><linearGradient x1="0.1" y1="0" x2="0" y2="1" id="SvgjsLinearGradient1545"><stop stop-color="#5b5bff" offset="0"></stop><stop stop-color="#5b76ff" offset="0.08333333333333333"></stop></linearGradient><linearGradient x1="0.1" y1="0" x2="0" y2="1" id="SvgjsLinearGradient1546"><stop stop-color="#4646ff" offset="0"></stop><stop stop-color="#4665ff" offset="0.16666666666666666"></stop></linearGradient><linearGradient x1="0.1" y1="0" x2="0" y2="1" id="SvgjsLinearGradient1547"><stop stop-color="#3030ff" offset="0"></stop><stop stop-color="#3052ff" offset="0.25"></stop></linearGradient><linearGradient x1="0.1" y1="0" x2="0" y2="1" id="SvgjsLinearGradient1548"><stop stop-color="#1b1bff" offset="0"></stop><stop stop-color="#1b41ff" offset="0.3333333333333333"></stop></linearGradient><linearGradient x1="0.1" y1="0" x2="0" y2="1" id="SvgjsLinearGradient1549"><stop stop-color="#0505ff" offset="0"></stop><stop stop-color="#052fff" offset="0.4166666666666667"></stop></linearGradient><linearGradient x1="0.1" y1="0" x2="0" y2="1" id="SvgjsLinearGradient1550"><stop stop-color="#0000ef" offset="0"></stop><stop stop-color="#0028ef" offset="0.5"></stop></linearGradient><linearGradient x1="0.1" y1="0" x2="0" y2="1" id="SvgjsLinearGradient1551"><stop stop-color="#0000d9" offset="0"></stop><stop stop-color="#0024d9" offset="0.5833333333333334"></stop></linearGradient><linearGradient x1="0.1" y1="0" x2="0" y2="1" id="SvgjsLinearGradient1552"><stop stop-color="#0000c4" offset="0"></stop><stop stop-color="#0021c4" offset="0.6666666666666666"></stop></linearGradient><linearGradient x1="0.1" y1="0" x2="0" y2="1" id="SvgjsLinearGradient1553"><stop stop-color="#0000ae" offset="0"></stop><stop stop-color="#001dae" offset="0.75"></stop></linearGradient><linearGradient x1="0.1" y1="0" x2="0" y2="1" id="SvgjsLinearGradient1554"><stop stop-color="#000099" offset="0"></stop><stop stop-color="#001a99" offset="0.8333333333333334"></stop></linearGradient><linearGradient x1="0.1" y1="0" x2="0" y2="1" id="SvgjsLinearGradient1555"><stop stop-color="#000083" offset="0"></stop><stop stop-color="#001683" offset="0.9166666666666666"></stop></linearGradient></defs></svg>